<svg width="16" height="16" viewBox="0 0 16 16" fill="none" xmlns="http://www.w3.org/2000/svg">
<g clip-path="url(#clip0_4_115)">
<path d="M6.26667 5.02222C6.13334 4.84444 5.86668 4.84444 5.73334 5.02222L4.15001 7.13333C4.06112 7.25186 4.06112 7.4148 4.15001 7.53333L5.73334 9.64446C5.86668 9.8222 6.13334 9.8222 6.26667 9.64446L7.85001 7.53333C7.93888 7.4148 7.93888 7.25186 7.85001 7.13333L6.26667 5.02222Z" fill="#646464"/>
<path d="M2.72831 3.75913C2.69099 3.70314 2.69099 3.63021 2.72831 3.57423L3.19467 2.87469C3.26063 2.77574 3.40605 2.77574 3.47201 2.87469L3.93837 3.57422C3.97569 3.63021 3.97569 3.70314 3.93837 3.75912L3.47201 4.45866C3.40605 4.55762 3.26063 4.55762 3.19467 4.45866L2.72831 3.75913Z" fill="#646464"/>
<path d="M8.80534 10.208C8.73941 10.1091 8.59394 10.1091 8.52801 10.208L8.06161 10.9075C8.02434 10.9635 8.02434 11.0365 8.06161 11.0925L8.52801 11.792C8.59394 11.8909 8.73941 11.8909 8.80534 11.792L9.27168 11.0925C9.30901 11.0365 9.30901 10.9635 9.27168 10.9075L8.80534 10.208Z" fill="#646464"/>
<path fill-rule="evenodd" clip-rule="evenodd" d="M0.666656 2.66666C0.666656 1.56209 1.56209 0.666656 2.66666 0.666656H9.33332C10.0882 0.666656 10.7454 1.08487 11.0859 1.70224L13.8927 2.45431C14.9596 2.7402 15.5927 3.83687 15.3069 4.9038L12.8912 13.9191C12.6053 14.9861 11.5087 15.6192 10.4417 15.3333L5.46565 14H2.66666C1.56209 14 0.666656 13.1046 0.666656 12V2.66666ZM11.3333 12V3.14892L13.5475 3.74222C13.9032 3.83751 14.1143 4.20306 14.0189 4.55871L11.6033 13.574C11.508 13.9297 11.1425 14.1407 10.7868 14.0454L10.0799 13.856C10.8147 13.5602 11.3333 12.8407 11.3333 12ZM2.66666 1.99999C2.29847 1.99999 1.99999 2.29847 1.99999 2.66666V12C1.99999 12.3682 2.29847 12.6667 2.66666 12.6667H9.33332C9.70152 12.6667 9.99999 12.3682 9.99999 12V2.66666C9.99999 2.29847 9.70152 1.99999 9.33332 1.99999H2.66666Z" fill="#646464"/>
</g>
<defs>
<clipPath id="clip0_4_115">
<rect width="16" height="16" fill="white"/>
</clipPath>
</defs>
</svg>
