<svg width="19" height="20" viewBox="0 0 19 20" fill="none" xmlns="http://www.w3.org/2000/svg">
<path d="M9.02439 1.46341C8.06975 1.46341 7.2557 2.0732 6.95402 2.92676C6.81934 3.30777 6.40131 3.50748 6.02029 3.37281C5.63928 3.23813 5.43958 2.82009 5.57425 2.43909C6.07614 1.01911 7.43034 0 9.02439 0C10.6185 0 11.9727 1.01911 12.4746 2.43909C12.6093 2.82009 12.4096 3.23813 12.0286 3.37281C11.6475 3.50748 11.2295 3.30777 11.0948 2.92676C10.7932 2.0732 9.97902 1.46341 9.02439 1.46341Z" fill="white"/>
<path d="M0 4.63417C0 4.23007 0.3276 3.90247 0.731707 3.90247H17.3172C17.7212 3.90247 18.0489 4.23007 18.0489 4.63417C18.0489 5.03828 17.7212 5.36588 17.3172 5.36588H0.731707C0.3276 5.36588 0 5.03828 0 4.63417Z" fill="white"/>
<path d="M3.0873 7.02451C3.06042 6.62129 2.71176 6.31622 2.30855 6.34309C1.90533 6.36997 1.60025 6.71863 1.62714 7.12185L2.07928 13.904C2.16269 15.1555 2.23006 16.1663 2.38808 16.9596C2.55238 17.7843 2.83181 18.4732 3.40898 19.0131C3.98614 19.5531 4.69204 19.786 5.52585 19.8951C6.32783 20 7.34098 20 8.59522 20H9.45258C10.7068 20 11.7199 20 12.5219 19.8951C13.3557 19.786 14.0617 19.5531 14.6388 19.0131C15.216 18.4732 15.4954 17.7843 15.6597 16.9596C15.8176 16.1663 15.8851 15.1555 15.9685 13.904L16.4207 7.12185C16.4475 6.71863 16.1424 6.36997 15.7392 6.34309C15.336 6.31622 14.9873 6.62129 14.9605 7.02451L14.5117 13.7553C14.4241 15.0703 14.3616 15.9853 14.2245 16.6737C14.0914 17.3415 13.9057 17.6949 13.639 17.9445C13.3723 18.194 13.0072 18.3558 12.3321 18.4441C11.6361 18.5351 10.719 18.5366 9.40117 18.5366H8.64663C7.32878 18.5366 6.41166 18.5351 5.71566 18.4441C5.04054 18.3558 4.6755 18.194 4.40875 17.9445C4.14201 17.6949 3.95633 17.3415 3.8233 16.6737C3.68616 15.9853 3.62369 15.0703 3.53603 13.7553L3.0873 7.02451Z" fill="white"/>
<path d="M6.51247 8.78409C6.91458 8.7439 7.27309 9.03726 7.31339 9.43941L7.80119 14.3175C7.84139 14.7195 7.54802 15.0781 7.14587 15.1183C6.74379 15.1585 6.38521 14.8652 6.34501 14.463L5.8572 9.58497C5.81699 9.18292 6.11036 8.82429 6.51247 8.78409Z" fill="white"/>
<path d="M12.1913 9.58497C12.2315 9.18292 11.9382 8.82429 11.536 8.78409C11.134 8.7439 10.7753 9.03726 10.7351 9.43941L10.2473 14.3175C10.2071 14.7195 10.5005 15.0781 10.9027 15.1183C11.3047 15.1585 11.6632 14.8652 11.7035 14.463L12.1913 9.58497Z" fill="white"/>
</svg>
