<svg width="16" height="16" viewBox="0 0 16 16" fill="none" xmlns="http://www.w3.org/2000/svg">
<path d="M1.06992 9.31408L1.62598 9.36215C1.60023 9.65997 1.34447 9.88457 1.04586 9.87169C0.74724 9.85882 0.51178 9.61294 0.51178 9.31408H1.06992ZM13.8968 7.95728L13.3717 4.92119L14.4717 4.73097L14.9968 7.76706L13.8968 7.95728ZM8.6941 1.11628H5.23464V0H8.6941V1.11628ZM4.55641 1.73956L3.95201 8.72944L2.83989 8.63329L3.44429 1.6434L4.55641 1.73956ZM13.3717 4.92119C12.9946 2.74028 11.0281 1.11628 8.6941 1.11628V0C11.5415 0 13.997 1.98619 14.4717 4.73097L13.3717 4.92119ZM8.70139 13.1347L8.20822 10.1249L9.30984 9.9444L9.80301 12.9543L8.70139 13.1347ZM4.18637 9.30559L5.25706 10.2282L4.52836 11.0739L3.45767 10.1512L4.18637 9.30559ZM7.20498 13.2301L7.55899 14.5948L6.47851 14.8751L6.12449 13.5104L7.20498 13.2301ZM8.09369 14.8626L8.2016 14.8279L8.54303 15.8907L8.43512 15.9253L8.09369 14.8626ZM6.6688 11.8579C6.90091 12.2925 7.08123 12.7528 7.20498 13.2301L6.12449 13.5104C6.02302 13.1192 5.87512 12.7413 5.68418 12.3838L6.6688 11.8579ZM8.2016 14.8279C8.42962 14.7547 8.59155 14.5785 8.64476 14.3733L9.72532 14.6536C9.57239 15.243 9.12126 15.7049 8.54303 15.8907L8.2016 14.8279ZM7.55899 14.5948C7.58511 14.6953 7.65767 14.7876 7.76744 14.8405L7.28283 15.8462C6.88692 15.6554 6.58954 15.3032 6.47851 14.8751L7.55899 14.5948ZM7.76744 14.8405C7.86768 14.8888 7.98571 14.8973 8.09369 14.8626L8.43512 15.9253C8.05581 16.0472 7.64197 16.0192 7.28283 15.8462L7.76744 14.8405ZM9.37034 8.75594H13.226V9.87222H9.37034V8.75594ZM2.34903 1.0001L1.62598 9.36215L0.513856 9.266L1.23691 0.90394L2.34903 1.0001ZM1.62806 0.920751V9.31408H0.51178V0.920751H1.62806ZM1.23691 0.90394C1.22709 1.01747 1.31659 1.11628 1.43212 1.11628V0C1.97238 0 2.39548 0.462958 2.34903 1.0001L1.23691 0.90394ZM9.80301 12.9543C9.89566 13.5199 9.86924 14.0987 9.72532 14.6536L8.64476 14.3733C8.74969 13.969 8.76896 13.5471 8.70139 13.1347L9.80301 12.9543ZM5.23464 1.11628C4.88196 1.11628 4.58695 1.38643 4.55641 1.73956L3.44429 1.6434C3.52463 0.714232 4.30169 0 5.23464 0V1.11628ZM5.25706 10.2282C5.76299 10.6642 6.30839 11.1831 6.6688 11.8579L5.68418 12.3838C5.42641 11.9012 5.01596 11.494 4.52836 11.0739L5.25706 10.2282ZM14.9968 7.76706C15.1867 8.86585 14.3418 9.87222 13.226 9.87222V8.75594C13.6477 8.75594 13.969 8.37514 13.8968 7.95728L14.9968 7.76706ZM1.43212 1.11628C1.54093 1.11628 1.62806 1.02814 1.62806 0.920751H0.51178C0.51178 0.412829 0.923232 0 1.43212 0V1.11628ZM8.20822 10.1249C8.09086 9.40829 8.6432 8.75594 9.37034 8.75594V9.87222C9.3332 9.87222 9.30351 9.90585 9.30984 9.9444L8.20822 10.1249ZM3.95201 8.72944C3.9331 8.94823 4.02043 9.16256 4.18637 9.30559L3.45767 10.1512C3.01985 9.77391 2.7901 9.20907 2.83989 8.63329L3.95201 8.72944Z" fill="#646464"/>
</svg>
