<svg width="15" height="16" viewBox="0 0 15 16" fill="none" xmlns="http://www.w3.org/2000/svg">
<path d="M0.55814 6.68591L1.1142 6.63784C1.08845 6.34005 0.832692 6.11541 0.53408 6.1283C0.235461 6.14118 0 6.38702 0 6.68591H0.55814ZM13.385 8.04271L12.86 11.0788L13.96 11.2691L14.485 8.23293L13.385 8.04271ZM8.18233 14.8837H4.72287V16H8.18233V14.8837ZM4.04464 14.2605L3.44024 7.27055L2.32811 7.3667L2.93251 14.3566L4.04464 14.2605ZM12.86 11.0788C12.4828 13.2597 10.5163 14.8837 8.18233 14.8837V16C11.0297 16 13.4853 14.0138 13.96 11.2691L12.86 11.0788ZM8.18962 2.86522L7.69645 5.87514L8.79807 6.05563L9.29124 3.04572L8.18962 2.86522ZM3.67459 6.6944L4.74528 5.77179L4.01659 4.92617L2.9459 5.8488L3.67459 6.6944ZM6.69321 2.7699L7.04722 1.40518L5.96674 1.12489L5.61271 2.48961L6.69321 2.7699ZM7.58192 1.13742L7.68983 1.17207L8.03126 0.109295L7.92335 0.074638L7.58192 1.13742ZM6.15703 4.14213C6.38914 3.70752 6.56945 3.24717 6.69321 2.7699L5.61271 2.48961C5.51124 2.88079 5.36334 3.25874 5.17241 3.61618L6.15703 4.14213ZM7.68983 1.17207C7.91784 1.24533 8.07978 1.42146 8.13299 1.62667L9.21355 1.34639C9.06062 0.756975 8.60949 0.295051 8.03126 0.109295L7.68983 1.17207ZM7.04722 1.40518C7.07334 1.3047 7.1459 1.21237 7.25567 1.15947L6.77105 0.153857C6.37515 0.344621 6.07777 0.696755 5.96674 1.12489L7.04722 1.40518ZM7.25567 1.15947C7.35591 1.11115 7.47394 1.10274 7.58192 1.13742L7.92335 0.074638C7.54404 -0.0472225 7.1302 -0.0192038 6.77105 0.153857L7.25567 1.15947ZM8.85857 7.24405H12.7143V6.12777H8.85857V7.24405ZM1.83725 14.9999L1.1142 6.63784L0.00207626 6.73399L0.725128 15.096L1.83725 14.9999ZM1.11628 15.0792V6.68591H0V15.0792H1.11628ZM0.725128 15.096C0.715312 14.9825 0.804808 14.8837 0.920343 14.8837V16C1.4606 16 1.8837 15.537 1.83725 14.9999L0.725128 15.096ZM9.29124 3.04572C9.38389 2.48004 9.35747 1.90123 9.21355 1.34639L8.13299 1.62667C8.23792 2.03105 8.25719 2.45292 8.18962 2.86522L9.29124 3.04572ZM4.72287 14.8837C4.37019 14.8837 4.07517 14.6136 4.04464 14.2605L2.93251 14.3566C3.01285 15.2857 3.78992 16 4.72287 16V14.8837ZM4.74528 5.77179C5.25122 5.33581 5.79662 4.81687 6.15703 4.14213L5.17241 3.61618C4.91464 4.09873 4.50419 4.50599 4.01659 4.92617L4.74528 5.77179ZM14.485 8.23293C14.675 7.13414 13.83 6.12777 12.7143 6.12777V7.24405C13.1359 7.24405 13.4573 7.62485 13.385 8.04271L14.485 8.23293ZM0.920343 14.8837C1.02915 14.8837 1.11628 14.9718 1.11628 15.0792H0C0 15.5872 0.411453 16 0.920343 16V14.8837ZM7.69645 5.87514C7.57909 6.59171 8.13143 7.24405 8.85857 7.24405V6.12777C8.82143 6.12777 8.79174 6.09414 8.79807 6.05563L7.69645 5.87514ZM3.44024 7.27055C3.42132 7.05176 3.50865 6.83743 3.67459 6.6944L2.9459 5.8488C2.50807 6.22609 2.27832 6.79092 2.32811 7.3667L3.44024 7.27055Z" fill="url(#paint0_linear_4_89)"/>
<defs>
<linearGradient id="paint0_linear_4_89" x1="-0.5" y1="0.166687" x2="14.5" y2="16.1667" gradientUnits="userSpaceOnUse">
<stop stop-color="#29AF7F"/>
<stop offset="0.591" stop-color="#55C57A"/>
<stop offset="1" stop-color="#7CD26E"/>
</linearGradient>
</defs>
</svg>
