<svg width="21" height="20" viewBox="0 0 21 20" fill="none" xmlns="http://www.w3.org/2000/svg">
<path d="M20.8169 18.9331L14.7418 12.8211C15.874 11.465 16.5561 9.72006 16.5561 7.81506C16.5561 3.49865 13.0575 0 8.74106 0C4.42464 0 0.925995 3.49865 0.925995 7.81506C0.925995 12.1315 4.42464 15.6301 8.74106 15.6301C10.7017 15.6301 12.4935 14.9061 13.8659 13.7126L19.9322 19.8171C20.1761 20.061 20.5724 20.061 20.8169 19.8171C21.0614 19.5733 21.0607 19.1782 20.8169 18.9331ZM8.74168 14.3903C5.11049 14.3903 2.1664 11.4463 2.1664 7.81506C2.1664 4.18387 5.10987 1.23978 8.74168 1.23978C12.3729 1.23978 15.3163 4.18325 15.3163 7.81506C15.3163 11.4469 12.3729 14.3903 8.74168 14.3903Z" fill="#646464"/>
</svg>
